<svg class="main-svg" xmlns="http://www.w3.org/2000/svg" xmlns:xlink="http://www.w3.org/1999/xlink" width="400" height="250" style="" viewBox="0 0 400 250"><rect x="0" y="0" width="400" height="250" style="fill: rgb(71, 71, 71); fill-opacity: 1;"/><defs id="defs-09e7b4"><g class="clips"/><g class="gradients"/><g class="patterns"/></defs><g class="bglayer"/><g class="layer-below"><g class="imagelayer"/><g class="shapelayer"/></g><g class="cartesianlayer"/><g class="polarlayer"/><g class="smithlayer"/><g class="ternarylayer"/><g class="geolayer"/><g class="funnelarealayer"/><g class="pielayer"/><g class="iciclelayer"/><g class="treemaplayer"/><g class="sunburstlayer"/><g class="glimages"/><defs id="topdefs-09e7b4"><g class="clips"/></defs><g class="indicatorlayer"><g class="trace"><g class="numbers" transform="translate(200,207)"><text text-anchor="middle" class="number" x="0" y="0" style="font-family: Arial; font-size: 80px; fill: rgb(245, 245, 245); fill-opacity: 1; white-space: pre;">109</text></g><g class="angular" transform="translate(200,224)"><g class="bg-arc"><path d="M-168,-2.0574066225675533e-14A168,168 0 0,1 168,0L126,0A126,126 0 0,0 -126,-1.543054966925665e-14Z" style="stroke: rgb(245, 245, 245); stroke-opacity: 1; fill: rgb(71, 71, 71); fill-opacity: 1; stroke-width: 0;"/></g><g class="bg-arc"><path d="M1.0287033112837767e-14,-168A168,168 0 0,1 118.79393923933999,-118.79393923933998L89.095454429505,-89.09545442950498A126,126 0 0,0 7.715274834628325e-15,-126Z" style="stroke: rgb(68, 68, 68); stroke-opacity: 1; fill: rgb(0, 166, 0); fill-opacity: 1; stroke-width: 0;"/></g><g class="value-arc"><path d="M-157.5,-1.9288187086570814e-14A157.5,157.5 0 0,1 22.191944030169292,-155.9287260903578L19.233018159480054,-135.1382292783101A136.5,136.5 0 0,0 -136.5,-1.671642880836137e-14Z" style="stroke: rgb(68, 68, 68); stroke-opacity: 1; fill: rgb(245, 245, 245); fill-opacity: 1; stroke-width: 0;"/></g><g class="threshold-arc"><path d="M22.191944030169292,-155.9287260903578A157.5,157.5 0 0,1 22.191944030169292,-155.9287260903578L19.233018159480054,-135.1382292783101A136.5,136.5 0 0,0 19.233018159480054,-135.1382292783101Z" style="stroke: rgb(255, 255, 255); stroke-opacity: 1; fill: rgb(0, 0, 0); fill-opacity: 1; stroke-width: 1;"/></g><g class="gauge-outline"><path d="M-168,-2.0574066225675533e-14A168,168 0 0,1 168,0L126,0A126,126 0 0,0 -126,-1.543054966925665e-14Z" style="stroke: rgb(245, 245, 245); stroke-opacity: 1; fill: rgb(0, 0, 0); fill-opacity: 0; stroke-width: 1.5;"/></g></g><g class="angularaxis crisp"><path class="xangularaxistick ticks crisp" d="M0.5,0h5" transform="translate(32,223.99999999999997)rotate(-180)" style="stroke: rgb(43, 43, 43); stroke-opacity: 1; stroke-width: 1px;"/><path class="xangularaxistick ticks crisp" d="M0.5,0h5" transform="translate(81.20606076066002,105.20606076066001)rotate(-135)" style="stroke: rgb(43, 43, 43); stroke-opacity: 1; stroke-width: 1px;"/><path class="xangularaxistick ticks crisp" d="M0.5,0h5" transform="translate(200,56)rotate(-90)" style="stroke: rgb(43, 43, 43); stroke-opacity: 1; stroke-width: 1px;"/><path class="xangularaxistick ticks crisp" d="M0.5,0h5" transform="translate(318.79393923934,105.20606076066002)rotate(-45)" style="stroke: rgb(43, 43, 43); stroke-opacity: 1; stroke-width: 1px;"/><path class="xangularaxistick ticks crisp" d="M0.5,0h5" transform="translate(368,224)rotate(0)" style="stroke: rgb(43, 43, 43); stroke-opacity: 1; stroke-width: 1px;"/><g class="xangularaxistick"><text text-anchor="end" x="-7.9" y="4.199999999999998" transform="translate(32,223.99999999999997)" style="font-family: Arial; font-size: 12px; fill: rgb(245, 245, 245); fill-opacity: 1; white-space: pre; opacity: 1;">0</text></g><g class="xangularaxistick"><text text-anchor="end" x="-5.586143571373725" y="-4.313351365237942" transform="translate(81.20606076066002,105.20606076066001)" style="font-family: Arial; font-size: 12px; fill: rgb(245, 245, 245); fill-opacity: 1; white-space: pre; opacity: 1;">50</text></g><g class="xangularaxistick"><text text-anchor="middle" x="4.837354856632045e-16" y="-10.3" transform="translate(200,56)" style="font-family: Arial; font-size: 12px; fill: rgb(245, 245, 245); fill-opacity: 1; white-space: pre; opacity: 1;">100</text></g><g class="xangularaxistick"><text text-anchor="start" x="5.586143571373726" y="-4.31335136523794" transform="translate(318.79393923934,105.20606076066002)" style="font-family: Arial; font-size: 12px; fill: rgb(245, 245, 245); fill-opacity: 1; white-space: pre; opacity: 1;">150</text></g><g class="xangularaxistick"><text text-anchor="start" x="7.9" y="4.199999999999999" transform="translate(368,224)" style="font-family: Arial; font-size: 12px; fill: rgb(245, 245, 245); fill-opacity: 1; white-space: pre; opacity: 1;">200</text></g></g><text class="title" text-anchor="middle" x="0" y="0" style="font-family: Arial; font-size: 24px; fill: rgb(245, 245, 245); fill-opacity: 1; white-space: pre;" transform="translate(200,24.6875)">Sample Area, 2022</text></g></g><g class="layer-above"><g class="imagelayer"/><g class="shapelayer"/></g><g class="infolayer"><g class="g-gtitle"/></g></svg>